<svg xmlns="http://www.w3.org/2000/svg" version="1.1" xmlns:xlink="http://www.w3.org/1999/xlink" xmlns:svgjs="http://svgjs.dev/svgjs" width="1000" height="424" viewBox="0 0 1000 424"><g transform="matrix(1,0,0,1,-0.6060606060606233,-0.6256558267689059)"><svg viewBox="0 0 396 168" data-background-color="#ffffff" preserveAspectRatio="xMidYMid meet" height="424" width="1000" xmlns="http://www.w3.org/2000/svg" xmlns:xlink="http://www.w3.org/1999/xlink"><g id="tight-bounds" transform="matrix(1,0,0,1,0.2400000000000091,0.24790136532352847)"><svg viewBox="0 0 395.52 167.50419501546295" height="167.50419501546295" width="395.52"><g><svg viewBox="0 0 395.52 167.50419501546295" height="167.50419501546295" width="395.52"><g><svg viewBox="0 0 395.52 167.50419501546295" height="167.50419501546295" width="395.52"><g id="textblocktransform"><svg viewBox="0 0 395.52 167.50419501546295" height="167.50419501546295" width="395.52" id="textblock"><g><svg viewBox="0 0 395.52 167.50419501546295" height="167.50419501546295" width="395.52"><g transform="matrix(1,0,0,1,0,0)"><svg width="395.52" viewBox="-0.0000019073486328125 -35.80000305175781 274.8500061035156 113.4000015258789" height="167.50419501546295" data-palette-color="#0718c4"><svg></svg><svg></svg><svg></svg><g class="wordmark-text-0" data-fill-palette-color="primary" id="text-0"><path xmlns="http://www.w3.org/2000/svg" d="M32.8-2.15h4.85v2.15h-10.8l-8.35-11.75h-7.75v11.75h-10.75v-2.15h4.85v-32.8h13c5.333 0 9.15 0.9 11.45 2.7 2.3 1.8 3.45 4.683 3.45 8.65v0c0 5.767-2.517 9.4-7.55 10.9v0zM18.1-17.1c3.333 0 5.6-0.517 6.8-1.55 1.2-1.033 1.8-2.693 1.8-4.98 0-2.28-0.617-3.847-1.85-4.7-1.233-0.847-3.433-1.27-6.6-1.27v0h-7.5v12.5zM66.95-2.15h11.45v2.15h-42v-2.15h11.45c-2.733-1.567-4.89-3.717-6.47-6.45-1.587-2.733-2.38-5.783-2.38-9.15v0c0-5.133 1.767-9.427 5.3-12.88 3.533-3.447 7.9-5.17 13.1-5.17 5.2 0 9.567 1.723 13.1 5.17 3.533 3.453 5.3 7.747 5.3 12.88v0c0 3.333-0.793 6.383-2.38 9.15-1.58 2.767-3.737 4.917-6.47 6.45zM66.17-26.7c-2.38-2.467-5.303-3.7-8.77-3.7-3.467 0-6.39 1.233-8.77 3.7-2.387 2.467-3.58 5.457-3.58 8.97 0 3.52 1.193 6.513 3.58 8.98 2.38 2.467 5.303 3.7 8.77 3.7 3.467 0 6.39-1.233 8.77-3.7 2.387-2.467 3.58-5.46 3.58-8.98 0-3.513-1.193-6.503-3.58-8.97zM103.65-2.15h6.25v2.15h-31.5v-2.15h6.4c-1.6-0.833-3.067-1.867-4.4-3.1v0l3.7-4.45c3.533 3.067 7.2 4.6 11 4.6v0c1.9 0 3.41-0.41 4.53-1.23 1.113-0.813 1.67-1.897 1.67-3.25 0-1.347-0.523-2.397-1.57-3.15-1.053-0.747-2.863-1.43-5.43-2.05-2.567-0.613-4.517-1.18-5.85-1.7-1.333-0.513-2.517-1.187-3.55-2.02v0c-2.067-1.567-3.1-3.967-3.1-7.2 0-3.233 1.177-5.727 3.53-7.48 2.347-1.747 5.253-2.62 8.72-2.62v0c2.233 0 4.45 0.367 6.65 1.1 2.2 0.733 4.1 1.767 5.7 3.1v0l-3.15 4.45c-1.033-0.933-2.433-1.7-4.2-2.3-1.767-0.6-3.507-0.9-5.22-0.9-1.72 0-3.13 0.35-4.23 1.05-1.1 0.7-1.65 1.757-1.65 3.17 0 1.42 0.55 2.503 1.65 3.25 1.1 0.753 3.443 1.563 7.03 2.43 3.58 0.867 6.28 2.083 8.1 3.65 1.813 1.567 2.72 3.767 2.72 6.6v0c0 3.433-1.267 6.117-3.8 8.05zM109.9-2.15h4.85v-32.8h24.55v5.55h-18.65v9.25h16.75v5.25h-16.75v9.35h19.25v3.4h4.85v2.15h-34.85zM142.6-2.15h13.7v2.15h-13.7zM186.85-2.15h11.45v2.15h-42v-2.15h11.45c-2.733-1.567-4.89-3.717-6.47-6.45-1.587-2.733-2.38-5.783-2.38-9.15v0c0-5.133 1.767-9.427 5.3-12.88 3.533-3.447 7.9-5.17 13.1-5.17 5.2 0 9.567 1.723 13.1 5.17 3.533 3.453 5.3 7.747 5.3 12.88v0c0 3.333-0.79 6.383-2.37 9.15-1.587 2.767-3.747 4.917-6.48 6.45zM186.08-26.7c-2.387-2.467-5.313-3.7-8.78-3.7-3.467 0-6.39 1.233-8.77 3.7-2.387 2.467-3.58 5.457-3.58 8.97 0 3.52 1.193 6.513 3.58 8.98 2.38 2.467 5.303 3.7 8.77 3.7 3.467 0 6.393-1.233 8.78-3.7 2.38-2.467 3.57-5.46 3.57-8.98 0-3.513-1.19-6.503-3.57-8.97zM209.05-2.15h19.45v2.15h-30.2v-2.15h4.85v-32.8h23.3l-0.05 5.5h-17.35v9.6h15.5v5.45h-15.5z" fill="#0718c4" fill-rule="nonzero" stroke="none" stroke-width="1" stroke-linecap="butt" stroke-linejoin="miter" stroke-miterlimit="10" stroke-dasharray="" stroke-dashoffset="0" font-family="none" font-weight="none" font-size="none" text-anchor="none" style="mix-blend-mode: normal" data-fill-palette-color="primary" opacity="1"></path><path xmlns="http://www.w3.org/2000/svg" d="M25.25 36.65h6.25v2.15h-31.5v-2.15h6.4c-1.6-0.833-3.067-1.867-4.4-3.1v0l3.7-4.45c3.533 3.067 7.2 4.6 11 4.6v0c1.9 0 3.41-0.41 4.53-1.23 1.113-0.813 1.67-1.897 1.67-3.25 0-1.347-0.523-2.397-1.57-3.15-1.053-0.747-2.863-1.43-5.43-2.05-2.567-0.613-4.517-1.18-5.85-1.7-1.333-0.513-2.517-1.187-3.55-2.02v0c-2.067-1.567-3.1-3.967-3.1-7.2 0-3.233 1.177-5.727 3.53-7.48 2.347-1.747 5.253-2.62 8.72-2.62v0c2.233 0 4.45 0.367 6.65 1.1 2.2 0.733 4.1 1.767 5.7 3.1v0l-3.15 4.45c-1.033-0.933-2.433-1.7-4.2-2.3-1.767-0.6-3.507-0.9-5.22-0.9-1.72 0-3.13 0.35-4.23 1.05-1.1 0.7-1.65 1.757-1.65 3.17 0 1.42 0.55 2.503 1.65 3.25 1.1 0.753 3.443 1.563 7.03 2.43 3.58 0.867 6.28 2.083 8.1 3.65 1.813 1.567 2.72 3.767 2.72 6.6v0c0 3.433-1.267 6.117-3.8 8.05zM70.35 38.8v-2.15h-4.85v-32.8h-5.9v15.15h-17.35v-15.15h-5.9v34.95h5.9v-14.3h17.35v14.3zM31.5 36.65h4.85v2.15h-4.85zM106.5 36.65h5.8v2.15h-11.15l-3.5-7.95h-17.5l-3.5 7.95h-11.15v-2.15h5.8l14.45-32.8h6.3zM82.55 25.4h12.7l-6.35-14.4zM107.45 36.65h4.85v-32.8h5.9l20.3 26.1v-26.1h5.9v32.8h4.85v2.15h-11.25l-19.8-25.5v25.5h-10.75zM149.25 36.65h4.85v-32.8h5.9l20.3 26.1v-26.1h5.9v32.8h4.85v2.15h-11.25l-19.8-25.5v25.5h-10.75zM221.6 36.65h11.45v2.15h-42v-2.15h11.45c-2.733-1.567-4.89-3.717-6.47-6.45-1.587-2.733-2.38-5.783-2.38-9.15v0c0-5.133 1.767-9.427 5.3-12.88 3.533-3.447 7.9-5.17 13.1-5.17 5.2 0 9.567 1.723 13.1 5.17 3.533 3.453 5.3 7.747 5.3 12.88v0c0 3.333-0.79 6.383-2.37 9.15-1.587 2.767-3.747 4.917-6.48 6.45zM220.83 12.1c-2.387-2.467-5.313-3.7-8.78-3.7-3.467 0-6.39 1.233-8.77 3.7-2.387 2.467-3.58 5.457-3.58 8.97 0 3.52 1.193 6.513 3.58 8.98 2.38 2.467 5.303 3.7 8.77 3.7 3.467 0 6.393-1.233 8.78-3.7 2.38-2.467 3.57-5.46 3.57-8.98 0-3.513-1.19-6.503-3.57-8.97zM233.05 36.65h4.85v-32.8h5.9l20.3 26.1v-26.1h5.9v32.8h4.85v2.15h-11.25l-19.8-25.5v25.5h-10.75z" fill="#0718c4" fill-rule="nonzero" stroke="none" stroke-width="1" stroke-linecap="butt" stroke-linejoin="miter" stroke-miterlimit="10" stroke-dasharray="" stroke-dashoffset="0" font-family="none" font-weight="none" font-size="none" text-anchor="none" style="mix-blend-mode: normal" data-fill-palette-color="primary" opacity="1"></path><path xmlns="http://www.w3.org/2000/svg" d="M38.85 77.6v-2.15h-4.85v-32.8h-5.9v15.15h-17.35v-15.15h-5.9v34.95h5.9v-14.3h17.35v14.3zM0 75.45h4.85v2.15h-4.85zM69.4 75.45h11.45v2.15h-42v-2.15h11.45c-2.733-1.567-4.89-3.717-6.47-6.45-1.587-2.733-2.38-5.783-2.38-9.15v0c0-5.133 1.767-9.427 5.3-12.88 3.533-3.447 7.9-5.17 13.1-5.17 5.2 0 9.567 1.723 13.1 5.17 3.533 3.453 5.3 7.747 5.3 12.88v0c0 3.333-0.79 6.383-2.37 9.15-1.587 2.767-3.747 4.917-6.48 6.45zM68.63 50.9c-2.387-2.467-5.313-3.7-8.78-3.7-3.467 0-6.39 1.233-8.77 3.7-2.387 2.467-3.58 5.457-3.58 8.97 0 3.52 1.193 6.513 3.58 8.98 2.38 2.467 5.303 3.7 8.77 3.7 3.467 0 6.393-1.233 8.78-3.7 2.38-2.467 3.57-5.46 3.57-8.98 0-3.513-1.19-6.503-3.57-8.97zM97.95 75.45h12.15v2.15h-30.2v-2.15h12.15v-27.4h-10.6v-5.4h27.1v5.4h-10.6zM110.1 75.45h4.85v-32.8h24.55v5.55h-18.65v9.25h16.75v5.25h-16.75v9.35h19.25v3.4h4.85v2.15h-34.85zM169.5 75.45h4.85v2.15h-31.55v-2.15h4.85v-32.8h5.9v29.35h15.95z" fill="#0718c4" fill-rule="nonzero" stroke="none" stroke-width="1" stroke-linecap="butt" stroke-linejoin="miter" stroke-miterlimit="10" stroke-dasharray="" stroke-dashoffset="0" font-family="none" font-weight="none" font-size="none" text-anchor="none" style="mix-blend-mode: normal" data-fill-palette-color="primary" opacity="1"></path></g></svg></g></svg></g></svg></g></svg></g></svg></g><defs></defs></svg><rect width="395.52" height="167.50419501546295" fill="none" stroke="none" visibility="hidden"></rect></g></svg></g></svg>